# xmcd CD database file
#
# Track frame offsets:
#	182
#	20657
#	35800
#	66137
#	84727
#	104090
#	138112
#	170212
#	207880
#	239847
#	273212
#	308542
#
# Disc length: 4299 seconds
#
# Revision: 5
# Processed by: cddbd v1.5.1PL0 Copyright (c) Steve Scherf et al.
# Submitted via: CDex 1.51
#
DISCID=b110c90c
DTITLE=Holmes, Richard - All that Jazz (The Best of Richard Holmes)
DYEAR=2001
DGENRE=Jazz
TTITLE0=Groove's Groove
TTITLE1=California Blues
TTITLE2=Wonderful World
TTITLE3=Misty
TTITLE4=Walking On A Tightrope
TTITLE5=Slow Blues In G
TTITLE6=Song For My Father
TTITLE7=My Friend
TTITLE8=Lonesome Road Blues
TTITLE9=On Say A Joy
TTITLE10=Danger Zone Is Everywhere
TTITLE11=The Time Has Come
EXTD=YEAR: 2001
EXTT0=
EXTT1=
EXTT2=
EXTT3=
EXTT4=
EXTT5=
EXTT6=
EXTT7=
EXTT8=
EXTT9=
EXTT10=
EXTT11=
PLAYORDER=
